<svg viewBox="0 0 92 92" fill="none" xmlns="http://www.w3.org/2000/svg">
<circle cx="46" cy="46" r="46" fill="url(#paint0_linear_0_1)"/>
<g style="mix-blend-mode:hard-light" filter="url(#filter0_f_0_1)">
<circle cx="46" cy="46" r="46" fill="url(#paint1_linear_0_1)"/>
</g>
<!-- <g style="mix-blend-mode:hard-light" filter="url(#filter1_f_0_1)">
<circle cx="46" cy="46" r="46" fill="url(#paint2_linear_0_1)"/>
</g> -->
<g filter="url(#filter2_f_0_1)">
<path fill-rule="evenodd" clip-rule="evenodd" d="M15.9868 22.3236C14.5801 20.5379 15.9979 18.0778 17.3253 16.1812C18.4273 14.6068 20.08 13.497 21.9252 13.8392C24.2916 14.2781 26.9174 15.5172 26.9926 17.974C27.0658 20.3713 24.3938 21.4781 22.1854 22.3509C20.0425 23.1978 17.4049 24.1238 15.9868 22.3236Z" fill="white" fill-opacity="0.8"/>
<path fill-rule="evenodd" clip-rule="evenodd" d="M14.6046 29.1093C14.1475 30.4317 12.8325 31.311 11.5714 30.8764C10.3371 30.451 9.93212 28.9475 10.3795 27.6532C10.9916 25.8827 12.1294 23.7958 13.8179 24.3776C15.5261 24.9663 15.2238 27.3181 14.6046 29.1093Z" fill="white" fill-opacity="0.8"/>
</g>
<defs>
<filter id="filter0_f_0_1" x="0" y="0" width="92" height="92" filterUnits="userSpaceOnUse" color-interpolation-filters="sRGB">
<feFlood flood-opacity="0" result="BackgroundImageFix"/>
<feBlend mode="normal" in="SourceGraphic" in2="BackgroundImageFix" result="shape"/>
<feGaussianBlur stdDeviation="15" result="effect1_foregroundBlur_0_1"/>
</filter>
<filter id="filter1_f_0_1" x="0" y="0" width="92" height="92" filterUnits="userSpaceOnUse" color-interpolation-filters="sRGB">
<feFlood flood-opacity="0" result="BackgroundImageFix"/>
<feBlend mode="normal" in="SourceGraphic" in2="BackgroundImageFix" result="shape"/>
<feGaussianBlur stdDeviation="15" result="effect1_foregroundBlur_0_1"/>
</filter>
<filter id="filter2_f_0_1" x="6.20312" y="9.77698" width="24.791" height="25.2115" filterUnits="userSpaceOnUse" color-interpolation-filters="sRGB">
<feFlood flood-opacity="0" result="BackgroundImageFix"/>
<feBlend mode="normal" in="SourceGraphic" in2="BackgroundImageFix" result="shape"/>
<feGaussianBlur stdDeviation="2" result="effect1_foregroundBlur_0_1"/>
</filter>
<linearGradient id="paint0_linear_0_1" x1="0.757146" y1="175.229" x2="265.16" y2="123.102" gradientUnits="userSpaceOnUse">
<stop offset="0.12578" stop-color="#35E0F5"/>
<stop offset="0.514551" stop-color="#E477EB"/>
<stop offset="0.910852" stop-color="#FF7A50"/>
</linearGradient>
<linearGradient id="paint1_linear_0_1" x1="0.757146" y1="175.229" x2="265.16" y2="123.102" gradientUnits="userSpaceOnUse">
<stop offset="0.12578" stop-color="#35E0F5"/>
<stop offset="0.514551" stop-color="#E477EB"/>
<stop offset="0.910852" stop-color="#FF7A50"/>
</linearGradient>
<linearGradient id="paint2_linear_0_1" x1="0.757146" y1="175.229" x2="265.16" y2="123.102" gradientUnits="userSpaceOnUse">
<stop offset="0.12578" stop-color="#35E0F5"/>
<stop offset="0.514551" stop-color="#E477EB"/>
<stop offset="0.910852" stop-color="#FF7A50"/>
</linearGradient>
</defs>
</svg>
