<svg viewBox="0 0 305 70" fill="none" xmlns="http://www.w3.org/2000/svg">
<path d="M229.304 12.9474L228.906 12.9588L228.625 13.2399L227.544 14.3217L226.462 15.4034L226.252 15.6136L226.19 15.9044C225.531 19.0341 225.862 22.0371 227.19 24.8789L227.381 25.2881L227.815 25.4152C228.616 25.6498 229.394 25.9416 230.149 26.2906L230.364 26.3898L230.601 26.3822C252.967 25.6673 275.358 25.5631 297.776 26.07C300.715 27.0486 302.377 28.4119 303.079 30.0231C303.774 31.6169 303.649 33.7263 302.395 36.4868C301.271 37.3538 300.105 38.1617 298.898 38.9106C278.695 39.0131 258.493 39.1157 238.29 39.2183C217.995 39.3213 197.699 39.4244 177.403 39.5273L177.04 39.5292L176.763 39.763C173.842 42.2281 172.175 44.857 172.175 47.6534C172.175 50.4514 173.843 53.0694 176.767 55.5121L177.042 55.7422L177.401 55.7447C192.558 55.8473 207.71 56.1532 222.859 56.6626C226.046 58.596 227.441 60.4942 227.6 62.2788C227.757 64.0462 226.74 66.1404 224.008 68.5823C151.244 68.9922 78.4806 68.9918 5.71707 68.5811C4.32428 68.1395 3.27493 67.4629 2.51727 66.5789C1.76051 65.696 1.24675 64.5503 1.01236 63.0942C1.5674 59.8059 3.33019 57.5982 6.37269 56.3628C44.8981 56.3572 83.3724 55.9448 121.796 55.1263L122.223 55.1172L122.512 54.8028C124.632 52.4929 125.799 50.0831 125.799 47.5878C125.799 45.0891 124.629 42.7081 122.501 40.4583L122.236 40.1781L121.852 40.1484C111.429 39.3434 100.952 38.9309 90.4181 38.9095C88.3716 38.1885 87.0077 37.142 86.2027 35.8285C85.4007 34.52 85.0781 32.8241 85.3427 30.6572C86.4395 28.8083 87.7404 27.5767 89.2219 26.8795C90.7462 26.1622 92.5557 25.9663 94.7025 26.3658L94.8021 26.3844L94.9034 26.3826C117.837 25.9721 140.811 25.5604 163.827 25.1463L164.42 25.1356L164.695 24.6095C165.733 22.6237 166.174 20.6481 165.939 18.7076C165.704 16.7667 164.803 14.9572 163.321 13.284L163.033 12.9585L162.598 12.9473C158.593 12.8448 154.579 12.7418 150.566 12.6388C146.622 12.5377 142.679 12.4365 138.744 12.3357C135.536 10.4687 134.16 8.65555 134.005 6.98825C133.852 5.34375 134.844 3.36534 137.592 1.03775C175.475 0.936453 213.356 1.03908 251.238 1.34501C253.912 3.46895 254.927 5.33836 254.851 6.94563C254.773 8.56945 253.562 10.3847 250.653 12.3374C247.148 12.4375 243.63 12.5381 240.112 12.6386C236.504 12.7418 232.897 12.8449 229.304 12.9474Z" stroke="white" stroke-width="2"/>
</svg>
