<svg width="265" height="43" viewBox="0 0 265 43" fill="none" xmlns="http://www.w3.org/2000/svg">
<path d="M181.151 13.8766L180.828 13.9127L180.588 14.1315C178.156 16.3497 176.775 18.7237 176.775 21.2491C176.775 23.7727 178.154 26.1592 180.584 28.4031L180.859 28.657L181.233 28.668C207.323 29.4331 233.447 29.8213 259.605 29.8318C261.787 30.7078 263.047 31.8543 263.616 33.1819C264.19 34.5226 264.154 36.2652 263.278 38.5186C262.314 39.776 261.101 40.6692 259.619 41.2126C194.042 41.599 128.464 41.5992 62.8869 41.2133C59.794 39.1954 58.514 37.3182 58.4412 35.643C58.3689 33.9796 59.4676 32.0367 62.348 29.8285C71.9221 29.7329 81.4941 29.6371 91.066 29.5413C100.774 29.4442 110.481 29.3471 120.191 29.2501L120.354 29.2485L120.508 29.1951C123.141 28.2835 125.061 26.8687 126.04 24.8526C127.018 22.8399 126.957 20.4349 126.075 17.7572L126.032 17.6254L125.954 17.5104C125.034 16.1474 123.877 14.9916 122.49 14.0446L122.244 13.8766L121.946 13.8706C83.0855 13.1 44.1777 12.7125 5.22229 12.707C2.99318 11.641 1.75688 10.3673 1.26396 8.96442C0.763547 7.5402 0.946061 5.74582 2.06747 3.48232C2.96184 2.3526 4.00469 1.54585 5.19803 1.03615C70.7913 0.939597 136.385 1.03651 201.978 1.32631C204.216 2.4027 205.456 3.68213 205.949 5.0858C206.442 6.48954 206.269 8.24858 205.183 10.4576C204.042 11.407 202.791 12.1562 201.429 12.7078C194.615 12.7388 187.856 13.128 181.151 13.8766Z" stroke="white" stroke-width="2"/>
</svg>
